<svg xmlns="http://www.w3.org/2000/svg" viewBox="0 0 1600 1000" font-family="ui-monospace, 'JetBrains Mono', Consolas, monospace">
  <rect width="1600" height="1000" fill="#0f1012"/>
  <g opacity="0.35" stroke="#232326" stroke-width="1">
    <path d="M0 200H1600M0 400H1600M0 600H1600M0 800H1600M200 0V1000M400 0V1000M600 0V1000M800 0V1000M1000 0V1000M1200 0V1000M1400 0V1000"/>
  </g>
  <g stroke="#2e2e33" stroke-width="3" fill="none">
    <path d="M560 330 Q700 330 760 470"/>
    <path d="M560 670 Q700 670 760 530"/>
    <path d="M1040 500H1180"/>
  </g>
  <g>
    <rect x="180" y="240" width="380" height="180" rx="16" fill="#141416" stroke="#c4b5fd" stroke-width="2.5"/>
    <text x="370" y="310" fill="#c4b5fd" font-size="30" text-anchor="middle">LLM</text>
    <text x="370" y="354" fill="#c9c9cf" font-size="24" text-anchor="middle">reads the content</text>
    <text x="370" y="390" fill="#8e8e96" font-size="22" text-anchor="middle">video title · channel</text>
  </g>
  <g>
    <rect x="180" y="580" width="380" height="180" rx="16" fill="#141416" stroke="#67e8f9" stroke-width="2.5"/>
    <text x="370" y="650" fill="#67e8f9" font-size="30" text-anchor="middle">Naive Bayes</text>
    <text x="370" y="694" fill="#c9c9cf" font-size="24" text-anchor="middle">reads the behavior</text>
    <text x="370" y="730" fill="#8e8e96" font-size="22" text-anchor="middle">app switching · patterns</text>
  </g>
  <g>
    <rect x="760" y="410" width="280" height="180" rx="16" fill="#141416" stroke="#2e2e33" stroke-width="2"/>
    <text x="900" y="490" fill="#f4f4f5" font-size="30" text-anchor="middle">fusion</text>
    <text x="900" y="534" fill="#8e8e96" font-size="22" text-anchor="middle">both signals, one call</text>
  </g>
  <g>
    <rect x="1180" y="410" width="260" height="180" rx="16" fill="#0d1f18" stroke="#10b981" stroke-width="2.5"/>
    <text x="1310" y="486" fill="#10b981" font-size="30" text-anchor="middle">verdict</text>
    <text x="1310" y="530" fill="#c9c9cf" font-size="22" text-anchor="middle">productive? · live</text>
  </g>
  <text x="800" y="880" fill="#8e8e96" font-size="28" text-anchor="middle">two models answering what neither could alone</text>
</svg>
