<svg xmlns="http://www.w3.org/2000/svg" viewBox="0 0 1600 1000" font-family="ui-monospace, 'JetBrains Mono', Consolas, monospace">
  <rect width="1600" height="1000" fill="#0f1012"/>
  <g opacity="0.35" stroke="#232326" stroke-width="1">
    <path d="M0 200H1600M0 400H1600M0 600H1600M0 800H1600M200 0V1000M400 0V1000M600 0V1000M800 0V1000M1000 0V1000M1200 0V1000M1400 0V1000"/>
  </g>
  <rect x="200" y="170" width="1200" height="660" rx="20" fill="#141416" stroke="#2e2e33" stroke-width="2"/>
  <rect x="200" y="170" width="1200" height="76" rx="20" fill="#18181b"/>
  <rect x="200" y="222" width="1200" height="24" fill="#18181b"/>
  <circle cx="252" cy="208" r="9" fill="#2e2e33"/>
  <circle cx="284" cy="208" r="9" fill="#2e2e33"/>
  <circle cx="316" cy="208" r="9" fill="#2e2e33"/>
  <text x="380" y="216" fill="#8e8e96" font-size="24">playwright · regression suite</text>
  <text x="260" y="320" fill="#f4f4f5" font-size="30">$ npx playwright test --project=regression</text>
  <text x="260" y="392" fill="#4ade80" font-size="30">✓ auth › login and session flows</text>
  <text x="260" y="452" fill="#4ade80" font-size="30">✓ checkout › payment edge cases</text>
  <text x="260" y="512" fill="#4ade80" font-size="30">✓ forms › validation and errors</text>
  <text x="260" y="572" fill="#4ade80" font-size="30">✓ api › contract and status codes</text>
  <text x="260" y="632" fill="#67e8f9" font-size="30">— jira test case → automated coverage</text>
  <text x="260" y="716" fill="#8e8e96" font-size="28">designed for the edge cases first</text>
  <rect x="260" y="748" width="18" height="34" fill="#10b981"/>
</svg>
