<svg xmlns="http://www.w3.org/2000/svg" viewBox="0 0 1600 1000" font-family="ui-monospace, 'JetBrains Mono', Consolas, monospace">
  <rect width="1600" height="1000" fill="#0f1012"/>
  <g opacity="0.35" stroke="#232326" stroke-width="1">
    <path d="M0 200H1600M0 400H1600M0 600H1600M0 800H1600M200 0V1000M400 0V1000M600 0V1000M800 0V1000M1000 0V1000M1200 0V1000M1400 0V1000"/>
  </g>
  <g stroke="#2e2e33" stroke-width="3" fill="none">
    <path d="M420 500H600"/>
    <path d="M900 500H1030"/>
    <path d="M900 500 Q960 500 990 380 T1090 330"/>
    <path d="M900 500 Q960 500 990 620 T1090 670"/>
  </g>
  <g>
    <rect x="180" y="430" width="240" height="140" rx="16" fill="#141416" stroke="#2e2e33" stroke-width="2"/>
    <text x="300" y="490" fill="#f4f4f5" font-size="30" text-anchor="middle">new lead</text>
    <text x="300" y="534" fill="#8e8e96" font-size="22" text-anchor="middle">WhatsApp</text>
  </g>
  <g>
    <rect x="600" y="410" width="300" height="180" rx="16" fill="#141416" stroke="#10b981" stroke-width="2.5"/>
    <text x="750" y="478" fill="#10b981" font-size="30" text-anchor="middle">guided questions</text>
    <text x="750" y="522" fill="#c9c9cf" font-size="24" text-anchor="middle">qualify · categorize</text>
    <text x="750" y="556" fill="#8e8e96" font-size="22" text-anchor="middle">no human needed</text>
  </g>
  <g>
    <rect x="1090" y="260" width="330" height="140" rx="16" fill="#141416" stroke="#2e2e33" stroke-width="2"/>
    <text x="1255" y="320" fill="#f4f4f5" font-size="28" text-anchor="middle">→ owner inbox</text>
    <text x="1255" y="360" fill="#8e8e96" font-size="22" text-anchor="middle">structured lead info</text>
  </g>
  <g>
    <rect x="1090" y="600" width="330" height="140" rx="16" fill="#141416" stroke="#2e2e33" stroke-width="2"/>
    <text x="1255" y="660" fill="#f4f4f5" font-size="28" text-anchor="middle">auto follow-up</text>
    <text x="1255" y="700" fill="#8e8e96" font-size="22" text-anchor="middle">for quiet leads</text>
  </g>
  <text x="800" y="880" fill="#8e8e96" font-size="28" text-anchor="middle">repetition is a bug — automate it</text>
</svg>
